<svg width="1440" height="100" fill="none" xmlns="http://www.w3.org/2000/svg" style=""><rect id="backgroundrect" width="100%" height="100%" x="0" y="0" fill="none" stroke="none"/>



<g class="currentLayer" style=""><title>Layer 1</title><path d="M1371.875815396919,30.04854083819744 C1395.6111630207442,8.42611765097733 1424.9124546677017,11.026267571738929 1440.3289183288955,30.04854083819744 V97.62236031737682 L-0.34962150035869444,95.22365423663015 V34.72226300346013 C35.54020622362124,-5.523063108542954 74.38719197715746,-13.151249229923515 124.13331721843707,15.265898211768814 C173.60214632762896,-6.5891624299001865 205.5112228990935,0.16410674891229649 240.8549674459838,30.191362372306557 C266.2230587211989,24.392255625954817 276.52005516399373,26.970920931986548 289.35476169647205,39.78628900298235 C324.9207435766601,14.19985209040997 363.4879305254363,19.96795960693712 407.3707942301177,54.978264693859785 C438.6892400509261,42.30888969533798 453.9755647331618,42.990258905342785 477.53372313179005,56.57743618358728 C504.04703742183676,27.526144761220163 545.2700606104278,28.65899780362006 587.2949401232147,53.38011628102417 C601.7433699947738,45.873391894403646 611.9432627378844,45.89538804757948 633.4322113710784,52.57741015164015 C675.2278460670851,25.178183294311722 709.8217898813629,25.894950964776246 747.3008147522353,52.57741015164015 C777.9064993959806,28.43351165664551 810.1929790064239,29.157543173042498 847.6750070845031,52.57741015164015 C866.104688643112,40.36985206212161 880.082616052284,41.09081434784292 894.4079144283676,52.57741015164015 C926.0006531740569,34.672950697270615 953.3058130976103,35.875884506765566 981.618048504486,54.47634317069408 C1000.4711822792433,40.53886436466331 1013.4230138927841,40.09996437803862 1039.5409059006117,48.77954411353225 C1052.0442585712813,20.56645958869811 1080.8249943024061,19.265719628337582 1120.197040782585,37.68468445164319 C1152.4214541107558,2.119401073940959 1193.5453714615248,-1.3625183584106288 1240.7157459885025,17.898786593071193 C1287.435639434471,-16.491226974293035 1337.9696060329818,-10.949966297006652 1371.875815396919,30.04854083819744 z" fill="#e5e2fd" id="svg_2" class="" transform="rotate(-180, 719.99, 46.4685)" fill-opacity="1"/></g></svg>